M48
;Layer_Color=9474304
;FILE_FORMAT=4:4
METRIC,LZ
;TYPE=PLATED
T1F00S00C0.9000
T2F00S00C0.9200
T3F00S00C1.3000
T4F00S00C2.3000
T5F00S00C2.5000
%
T01
X0168148Y003076
X0208148
Y004826
X0168148
T02
X0176205Y0052303
X0178705
X0180705
X0183205
T03
X0206201Y00563819
X0211201
X01966812
X01916812
X01676417
X01626418
X0153122
X0148122
T04
X0173135Y0055013
X0186275
T05
X01554Y0033146
X01584Y0037846
X01524
M30
