G04*
G04 #@! TF.GenerationSoftware,Altium Limited,Altium Designer,23.4.1 (23)*
G04*
G04 Layer_Color=65535*
%FSLAX44Y44*%
%MOMM*%
G71*
G04*
G04 #@! TF.SameCoordinates,AF02C922-6A1C-4A38-A695-A25B514CCAD0*
G04*
G04*
G04 #@! TF.FilePolarity,Positive*
G04*
G01*
G75*
%ADD10C,0.2500*%
%ADD11C,0.2000*%
%ADD12C,0.2540*%
D10*
X1598250Y378460D02*
G03*
X1598250Y378460I-1250J0D01*
G01*
D11*
X1862650Y652928D02*
G03*
X1859550Y649930I-100J-2998D01*
G01*
X1734550D02*
G03*
X1731450Y652928I-3000J0D01*
G01*
X1591000Y333460D02*
Y354460D01*
X1575500Y333460D02*
X1591000D01*
X1447000D02*
X1532500D01*
X1591000Y402460D02*
Y423460D01*
X1447000Y333460D02*
Y423460D01*
X1591000D01*
X1853550Y652930D02*
X1853550Y649930D01*
X1869550Y649930D02*
Y652930D01*
X1862550Y649930D02*
X1869550D01*
X1862650Y652928D02*
X1869550Y652930D01*
X1853550Y649930D02*
X1859550Y649930D01*
X1734550D02*
X1740550Y649930D01*
Y652930D01*
X1724550Y652930D02*
X1731450Y652928D01*
X1724550Y649930D02*
X1731550D01*
X1724550D02*
Y652930D01*
X1731550Y512930D02*
X1862550D01*
X1740550Y652930D02*
X1853550D01*
X1862550Y512930D02*
Y529930D01*
Y570330D02*
Y649930D01*
X1731550Y570330D02*
Y649930D01*
Y512930D02*
Y529930D01*
X1891811Y539820D02*
Y596820D01*
Y521820D02*
Y531320D01*
X1885811Y540320D02*
X1891811Y539820D01*
X1885811Y530820D02*
X1891811Y531320D01*
X1885811Y530820D02*
Y540320D01*
X1991811Y521820D02*
Y572820D01*
X1891811Y521820D02*
X1991811D01*
Y579820D02*
Y596820D01*
Y579820D02*
X1997811Y580570D01*
X1991811Y572820D02*
X1997811Y572070D01*
Y580570D01*
X1891811Y596820D02*
X1991811Y596820D01*
X1601416Y539820D02*
Y596820D01*
Y521820D02*
Y531320D01*
X1595416Y540320D02*
X1601416Y539820D01*
X1595416Y530820D02*
X1601416Y531320D01*
X1595416Y530820D02*
Y540320D01*
X1701416Y521820D02*
Y572820D01*
X1601416Y521820D02*
X1701416D01*
Y579820D02*
Y596820D01*
Y579820D02*
X1707416Y580570D01*
X1701416Y572820D02*
X1707416Y572070D01*
Y580570D01*
X1601416Y596820D02*
X1701416Y596820D01*
X2037008Y539820D02*
Y596820D01*
Y521820D02*
Y531320D01*
X2031008Y540320D02*
X2037008Y539820D01*
X2031008Y530820D02*
X2037008Y531320D01*
X2031008Y530820D02*
Y540320D01*
X2137009Y521820D02*
Y572820D01*
X2037008Y521820D02*
X2137009D01*
Y579820D02*
Y596820D01*
Y579820D02*
X2143009Y580570D01*
X2137009Y572820D02*
X2143009Y572070D01*
Y580570D01*
X2037008Y596820D02*
X2137009Y596820D01*
X1456218Y539820D02*
Y596820D01*
Y521820D02*
Y531320D01*
X1450218Y540320D02*
X1456218Y539820D01*
X1450218Y530820D02*
X1456218Y531320D01*
X1450218Y530820D02*
Y540320D01*
X1556219Y521820D02*
Y572820D01*
X1456218Y521820D02*
X1556219D01*
Y579820D02*
Y596820D01*
Y579820D02*
X1562219Y580570D01*
X1556219Y572820D02*
X1562219Y572070D01*
Y580570D01*
X1456218Y596820D02*
X1556219Y596820D01*
D12*
X1725673Y691637D02*
X1720594D01*
X1723134D01*
Y678941D01*
X1720594Y676402D01*
X1718055D01*
X1715516Y678941D01*
X1740908Y676402D02*
X1730751D01*
X1740908Y686559D01*
Y689098D01*
X1738369Y691637D01*
X1733290D01*
X1730751Y689098D01*
X2041395Y622041D02*
X2036316D01*
X2038855D01*
Y609345D01*
X2036316Y606806D01*
X2033777D01*
X2031238Y609345D01*
X2056630Y622041D02*
X2051551Y619502D01*
X2046473Y614423D01*
Y609345D01*
X2049012Y606806D01*
X2054091D01*
X2056630Y609345D01*
Y611884D01*
X2054091Y614423D01*
X2046473D01*
X1460751Y622041D02*
X1455672D01*
X1458212D01*
Y609345D01*
X1455672Y606806D01*
X1453133D01*
X1450594Y609345D01*
X1465829Y619502D02*
X1468368Y622041D01*
X1473447D01*
X1475986Y619502D01*
Y616963D01*
X1473447Y614423D01*
X1470907D01*
X1473447D01*
X1475986Y611884D01*
Y609345D01*
X1473447Y606806D01*
X1468368D01*
X1465829Y609345D01*
X1458465Y447543D02*
X1453386D01*
X1455925D01*
Y434847D01*
X1453386Y432308D01*
X1450847D01*
X1448308Y434847D01*
X1463543Y432308D02*
X1468621D01*
X1466082D01*
Y447543D01*
X1463543Y445004D01*
X1896361Y622041D02*
X1891282D01*
X1893822D01*
Y609345D01*
X1891282Y606806D01*
X1888743D01*
X1886204Y609345D01*
X1911596Y622041D02*
X1901439D01*
Y614423D01*
X1906517Y616963D01*
X1909057D01*
X1911596Y614423D01*
Y609345D01*
X1909057Y606806D01*
X1903978D01*
X1901439Y609345D01*
X1605785Y622041D02*
X1600706D01*
X1603246D01*
Y609345D01*
X1600706Y606806D01*
X1598167D01*
X1595628Y609345D01*
X1618481Y606806D02*
Y622041D01*
X1610863Y614423D01*
X1621020D01*
X1669034Y520442D02*
X1679191Y510285D01*
X1669034D02*
X1679191Y520442D01*
X1669034Y515364D02*
X1679191D01*
X1674112Y510285D02*
Y520442D01*
X1684269Y507746D02*
X1689347D01*
X1686808D01*
Y522981D01*
X1684269Y520442D01*
M02*
