G04*
G04 #@! TF.GenerationSoftware,Altium Limited,Altium Designer,23.4.1 (23)*
G04*
G04 Layer_Physical_Order=1*
G04 Layer_Color=255*
%FSLAX44Y44*%
%MOMM*%
G71*
G04*
G04 #@! TF.SameCoordinates,AF02C922-6A1C-4A38-A695-A25B514CCAD0*
G04*
G04*
G04 #@! TF.FilePolarity,Positive*
G04*
G01*
G75*
%ADD12C,0.2540*%
%ADD19C,2.0000*%
%ADD20C,2.0000*%
%ADD21C,4.0000*%
%ADD22C,1.4200*%
%ADD23C,3.4500*%
%ADD24C,1.9500*%
%ADD25R,1.9500X1.9500*%
G36*
X2155825Y273050D02*
X1438275D01*
Y609600D01*
X2155825D01*
Y273050D01*
D02*
G37*
%LPC*%
G36*
X1918431Y576109D02*
X1918083D01*
Y565089D01*
X1929102D01*
Y565437D01*
X1928265Y568563D01*
X1926647Y571366D01*
X1924359Y573654D01*
X1921556Y575272D01*
X1918431Y576109D01*
D02*
G37*
G36*
X1482838D02*
X1482490D01*
Y565089D01*
X1493510D01*
Y565437D01*
X1492672Y568563D01*
X1491055Y571366D01*
X1488766Y573654D01*
X1485964Y575272D01*
X1482838Y576109D01*
D02*
G37*
G36*
X1628036D02*
X1627688D01*
Y565089D01*
X1638707D01*
Y565437D01*
X1637870Y568563D01*
X1636252Y571366D01*
X1633964Y573654D01*
X1631161Y575272D01*
X1628036Y576109D01*
D02*
G37*
G36*
X2063628D02*
X2063280D01*
Y565089D01*
X2074300D01*
Y565437D01*
X2073463Y568563D01*
X2071844Y571366D01*
X2069556Y573654D01*
X2066754Y575272D01*
X2063628Y576109D01*
D02*
G37*
G36*
X2060740D02*
X2060392D01*
X2057266Y575272D01*
X2054464Y573654D01*
X2052176Y571366D01*
X2050558Y568563D01*
X2049720Y565437D01*
Y565089D01*
X2060740D01*
Y576109D01*
D02*
G37*
G36*
X1625148D02*
X1624799D01*
X1621674Y575272D01*
X1618871Y573654D01*
X1616583Y571366D01*
X1614965Y568563D01*
X1614128Y565437D01*
Y565089D01*
X1625148D01*
Y576109D01*
D02*
G37*
G36*
X1479950D02*
X1479602D01*
X1476476Y575272D01*
X1473674Y573654D01*
X1471386Y571366D01*
X1469768Y568563D01*
X1468930Y565437D01*
Y565089D01*
X1479950D01*
Y576109D01*
D02*
G37*
G36*
X1915543D02*
X1915195D01*
X1912069Y575272D01*
X1909266Y573654D01*
X1906978Y571366D01*
X1905360Y568563D01*
X1904523Y565437D01*
Y565089D01*
X1915543D01*
Y576109D01*
D02*
G37*
G36*
X2062010Y563819D02*
D01*
D01*
D01*
D02*
G37*
G36*
X2074300Y562549D02*
X2063280D01*
Y551529D01*
X2063628D01*
X2066754Y552367D01*
X2069556Y553985D01*
X2071844Y556273D01*
X2073463Y559076D01*
X2074300Y562201D01*
Y562549D01*
D02*
G37*
G36*
X2060740D02*
X2049720D01*
Y562201D01*
X2050558Y559076D01*
X2052176Y556273D01*
X2054464Y553985D01*
X2057266Y552367D01*
X2060392Y551529D01*
X2060740D01*
Y562549D01*
D02*
G37*
G36*
X1929102D02*
X1918083D01*
Y551529D01*
X1918431D01*
X1921556Y552367D01*
X1924359Y553985D01*
X1926647Y556273D01*
X1928265Y559076D01*
X1929102Y562201D01*
Y562549D01*
D02*
G37*
G36*
X1915543D02*
X1904523D01*
Y562201D01*
X1905360Y559076D01*
X1906978Y556273D01*
X1909266Y553985D01*
X1912069Y552367D01*
X1915195Y551529D01*
X1915543D01*
Y562549D01*
D02*
G37*
G36*
X1638707D02*
X1627688D01*
Y551529D01*
X1628036D01*
X1631161Y552367D01*
X1633964Y553985D01*
X1636252Y556273D01*
X1637870Y559076D01*
X1638707Y562201D01*
Y562549D01*
D02*
G37*
G36*
X1625148D02*
X1614128D01*
Y562201D01*
X1614965Y559076D01*
X1616583Y556273D01*
X1618871Y553985D01*
X1621674Y552367D01*
X1624799Y551529D01*
X1625148D01*
Y562549D01*
D02*
G37*
G36*
X1493510D02*
X1482490D01*
Y551529D01*
X1482838D01*
X1485964Y552367D01*
X1488766Y553985D01*
X1491055Y556273D01*
X1492672Y559076D01*
X1493510Y562201D01*
Y562549D01*
D02*
G37*
G36*
X1479950D02*
X1468930D01*
Y562201D01*
X1469768Y559076D01*
X1471386Y556273D01*
X1473674Y553985D01*
X1476476Y552367D01*
X1479602Y551529D01*
X1479950D01*
Y562549D01*
D02*
G37*
G36*
X1676417Y576468D02*
X1673696Y576109D01*
X1664128D01*
Y569417D01*
X1633139Y538428D01*
X1574498D01*
X1543510Y569417D01*
Y576109D01*
X1533941D01*
X1531220Y576468D01*
X1528499Y576109D01*
X1518930D01*
Y566540D01*
X1518572Y563819D01*
X1518930Y561099D01*
Y551529D01*
X1525623D01*
X1560316Y516837D01*
X1560316Y516836D01*
X1562935Y514826D01*
X1565986Y513563D01*
X1569259Y513132D01*
X1569259Y513132D01*
X1633061D01*
X1668832Y477361D01*
Y440849D01*
X1619091Y391108D01*
X1602657D01*
X1601508Y392828D01*
X1598368Y395968D01*
X1594677Y398435D01*
X1590575Y400134D01*
X1586220Y401000D01*
X1581780D01*
X1577425Y400134D01*
X1573323Y398435D01*
X1569632Y395968D01*
X1566492Y392828D01*
X1564025Y389137D01*
X1562326Y385035D01*
X1561460Y380680D01*
Y376240D01*
X1562326Y371885D01*
X1564025Y367783D01*
X1566492Y364092D01*
X1569632Y360952D01*
X1573323Y358485D01*
X1577425Y356786D01*
X1581780Y355920D01*
X1586220D01*
X1590575Y356786D01*
X1594677Y358485D01*
X1598368Y360952D01*
X1601508Y364092D01*
X1602657Y365812D01*
X1624330D01*
X1624330Y365812D01*
X1627604Y366243D01*
X1630654Y367506D01*
X1633274Y369516D01*
X1690423Y426666D01*
X1690424Y426666D01*
X1692434Y429286D01*
X1693697Y432336D01*
X1694128Y435610D01*
X1694128Y435610D01*
Y482600D01*
X1694128Y482600D01*
X1694020Y483422D01*
Y484251D01*
X1693805Y485052D01*
X1693697Y485874D01*
X1693380Y486640D01*
X1693165Y487441D01*
X1692751Y488159D01*
X1692434Y488924D01*
X1691929Y489582D01*
X1691514Y490300D01*
X1690928Y490886D01*
X1690424Y491544D01*
X1690423Y491544D01*
X1656227Y525741D01*
X1682015Y551529D01*
X1688707D01*
Y561098D01*
X1689066Y563819D01*
X1688707Y566540D01*
Y576109D01*
X1679138D01*
X1676417Y576468D01*
D02*
G37*
G36*
X2112010Y576468D02*
X2109409D01*
X2106688Y576109D01*
X2099720D01*
Y572017D01*
X2064861Y537158D01*
X2008029D01*
X1979171Y566016D01*
X1979102Y566540D01*
Y576109D01*
X1969533D01*
X1966812Y576468D01*
X1964092Y576109D01*
X1954523D01*
Y566540D01*
X1954164Y563819D01*
Y560488D01*
X1954164Y560488D01*
X1954523Y557766D01*
Y551529D01*
X1957883D01*
X1984903Y524510D01*
X1970881Y510488D01*
X1862479D01*
X1840994Y531974D01*
X1838374Y533984D01*
X1835324Y535247D01*
X1832050Y535678D01*
X1828776Y535247D01*
X1825726Y533984D01*
X1823106Y531974D01*
X1821096Y529354D01*
X1819833Y526304D01*
X1819402Y523030D01*
X1819833Y519756D01*
X1821096Y516706D01*
X1823106Y514086D01*
X1848296Y488896D01*
X1848296Y488896D01*
X1850916Y486886D01*
X1853966Y485623D01*
X1857240Y485192D01*
X1976120D01*
X1976120Y485192D01*
X1979394Y485623D01*
X1982444Y486886D01*
X1985064Y488896D01*
X2008029Y511862D01*
X2070100D01*
X2070100Y511862D01*
X2073374Y512293D01*
X2076424Y513556D01*
X2079044Y515566D01*
X2098188Y534711D01*
X2099362Y534225D01*
Y518369D01*
X2072536Y491544D01*
X2072032Y490886D01*
X2071445Y490300D01*
X2071031Y489582D01*
X2070526Y488924D01*
X2070209Y488159D01*
X2069795Y487441D01*
X2069580Y486640D01*
X2069263Y485874D01*
X2069155Y485052D01*
X2068940Y484251D01*
Y483422D01*
X2068832Y482600D01*
X2068940Y481778D01*
Y480950D01*
X2069155Y480149D01*
X2069263Y479327D01*
X2069580Y478561D01*
X2069795Y477760D01*
X2070209Y477042D01*
X2070526Y476276D01*
X2071031Y475619D01*
X2071445Y474901D01*
X2072032Y474315D01*
X2072536Y473657D01*
X2073194Y473152D01*
X2073780Y472566D01*
X2074498Y472151D01*
X2075156Y471647D01*
X2075922Y471329D01*
X2076640Y470915D01*
X2077440Y470700D01*
X2078206Y470383D01*
X2079028Y470275D01*
X2079829Y470060D01*
X2080658D01*
X2081480Y469952D01*
X2082302Y470060D01*
X2083131D01*
X2083932Y470275D01*
X2084754Y470383D01*
X2085520Y470700D01*
X2086320Y470915D01*
X2087038Y471329D01*
X2087804Y471647D01*
X2088462Y472151D01*
X2089180Y472566D01*
X2089766Y473152D01*
X2090424Y473657D01*
X2120954Y504187D01*
X2120954Y504187D01*
X2122964Y506806D01*
X2124227Y509857D01*
X2124658Y513130D01*
X2124658Y513130D01*
Y563819D01*
X2124300Y566540D01*
Y576109D01*
X2114731D01*
X2112010Y576468D01*
D02*
G37*
G36*
X1864699Y569920D02*
X1860801D01*
X1856978Y569160D01*
X1853376Y567668D01*
X1850135Y565502D01*
X1847378Y562745D01*
X1845212Y559504D01*
X1843721Y555902D01*
X1842960Y552079D01*
Y548181D01*
X1843721Y544357D01*
X1845212Y540756D01*
X1847378Y537515D01*
X1850135Y534758D01*
X1853376Y532592D01*
X1856978Y531101D01*
X1860801Y530340D01*
X1864699D01*
X1868522Y531101D01*
X1872124Y532592D01*
X1875365Y534758D01*
X1878122Y537515D01*
X1880288Y540756D01*
X1881779Y544357D01*
X1882540Y548181D01*
Y552079D01*
X1881779Y555902D01*
X1880288Y559504D01*
X1878122Y562745D01*
X1875365Y565502D01*
X1872124Y567668D01*
X1868522Y569160D01*
X1864699Y569920D01*
D02*
G37*
G36*
X1733299D02*
X1729401D01*
X1725578Y569160D01*
X1721976Y567668D01*
X1718735Y565502D01*
X1715978Y562745D01*
X1713812Y559504D01*
X1712321Y555902D01*
X1711560Y552079D01*
Y548181D01*
X1712321Y544357D01*
X1713812Y540756D01*
X1715978Y537515D01*
X1718735Y534758D01*
X1721976Y532592D01*
X1725578Y531101D01*
X1729401Y530340D01*
X1733299D01*
X1737122Y531101D01*
X1740724Y532592D01*
X1743965Y534758D01*
X1746722Y537515D01*
X1748888Y540756D01*
X1750379Y544357D01*
X1751140Y548181D01*
Y552079D01*
X1750379Y555902D01*
X1748888Y559504D01*
X1746722Y562745D01*
X1743965Y565502D01*
X1740724Y567668D01*
X1737122Y569160D01*
X1733299Y569920D01*
D02*
G37*
G36*
X1808319Y532670D02*
X1805781D01*
X1803329Y532013D01*
X1801131Y530744D01*
X1799336Y528949D01*
X1798067Y526751D01*
X1797707Y525409D01*
X1796393D01*
X1796033Y526751D01*
X1794764Y528949D01*
X1792969Y530744D01*
X1790771Y532013D01*
X1788319Y532670D01*
X1785781D01*
X1783329Y532013D01*
X1781131Y530744D01*
X1779336Y528949D01*
X1778067Y526751D01*
X1777410Y524299D01*
Y521761D01*
X1778067Y519309D01*
X1779336Y517111D01*
X1781131Y515316D01*
X1783329Y514047D01*
X1785781Y513390D01*
X1788319D01*
X1790771Y514047D01*
X1792969Y515316D01*
X1794764Y517111D01*
X1796033Y519309D01*
X1796393Y520651D01*
X1797707D01*
X1798067Y519309D01*
X1799336Y517111D01*
X1801131Y515316D01*
X1803329Y514047D01*
X1805781Y513390D01*
X1808319D01*
X1810771Y514047D01*
X1812969Y515316D01*
X1814764Y517111D01*
X1816033Y519309D01*
X1816690Y521761D01*
Y524299D01*
X1816033Y526751D01*
X1814764Y528949D01*
X1812969Y530744D01*
X1810771Y532013D01*
X1808319Y532670D01*
D02*
G37*
G36*
X1763320Y532670D02*
Y524300D01*
X1771690D01*
X1771033Y526751D01*
X1769764Y528949D01*
X1767969Y530744D01*
X1765771Y532013D01*
X1763320Y532670D01*
D02*
G37*
G36*
X1760780Y532670D02*
X1758329Y532013D01*
X1756131Y530744D01*
X1754336Y528949D01*
X1753067Y526751D01*
X1752410Y524300D01*
X1760780D01*
Y532670D01*
D02*
G37*
G36*
X1771690Y521760D02*
X1763320D01*
Y513390D01*
X1765771Y514047D01*
X1767969Y515316D01*
X1769764Y517111D01*
X1771033Y519309D01*
X1771690Y521760D01*
D02*
G37*
G36*
X1760780D02*
X1752410D01*
X1753067Y519309D01*
X1754336Y517111D01*
X1756131Y515316D01*
X1758329Y514047D01*
X1760780Y513390D01*
Y521760D01*
D02*
G37*
G36*
X1526220Y401000D02*
X1525270D01*
Y379730D01*
X1546540D01*
Y380680D01*
X1545674Y385035D01*
X1543975Y389137D01*
X1541508Y392828D01*
X1538368Y395968D01*
X1534677Y398435D01*
X1530575Y400134D01*
X1526220Y401000D01*
D02*
G37*
G36*
X1522730D02*
X1521780D01*
X1517425Y400134D01*
X1513323Y398435D01*
X1509632Y395968D01*
X1506492Y392828D01*
X1504025Y389137D01*
X1502326Y385035D01*
X1501460Y380680D01*
Y379730D01*
X1522730D01*
Y401000D01*
D02*
G37*
G36*
X1546540Y377190D02*
X1525270D01*
Y355920D01*
X1526220D01*
X1530575Y356786D01*
X1534677Y358485D01*
X1538368Y360952D01*
X1541508Y364092D01*
X1543975Y367783D01*
X1545674Y371885D01*
X1546540Y376240D01*
Y377190D01*
D02*
G37*
G36*
X1522730D02*
X1501460D01*
Y376240D01*
X1502326Y371885D01*
X1504025Y367783D01*
X1506492Y364092D01*
X1509632Y360952D01*
X1513323Y358485D01*
X1517425Y356786D01*
X1521780Y355920D01*
X1522730D01*
Y377190D01*
D02*
G37*
G36*
X1556220Y354000D02*
X1555270D01*
Y332730D01*
X1576540D01*
Y333680D01*
X1575674Y338035D01*
X1573975Y342137D01*
X1571508Y345828D01*
X1568368Y348968D01*
X1564677Y351435D01*
X1560575Y353134D01*
X1556220Y354000D01*
D02*
G37*
G36*
X1552730D02*
X1551780D01*
X1547425Y353134D01*
X1543323Y351435D01*
X1539632Y348968D01*
X1536492Y345828D01*
X1534025Y342137D01*
X1532326Y338035D01*
X1531460Y333680D01*
Y332730D01*
X1552730D01*
Y354000D01*
D02*
G37*
G36*
X1576540Y330190D02*
X1555270D01*
Y308920D01*
X1556220D01*
X1560575Y309786D01*
X1564677Y311485D01*
X1568368Y313952D01*
X1571508Y317092D01*
X1573975Y320783D01*
X1575674Y324885D01*
X1576540Y329240D01*
Y330190D01*
D02*
G37*
G36*
X1552730D02*
X1531460D01*
Y329240D01*
X1532326Y324885D01*
X1534025Y320783D01*
X1536492Y317092D01*
X1539632Y313952D01*
X1543323Y311485D01*
X1547425Y309786D01*
X1551780Y308920D01*
X1552730D01*
Y330190D01*
D02*
G37*
G36*
X2083131Y320140D02*
X2082750D01*
Y308870D01*
X2094020D01*
Y309251D01*
X2093165Y312440D01*
X2091514Y315299D01*
X2089180Y317634D01*
X2086320Y319285D01*
X2083131Y320140D01*
D02*
G37*
G36*
X2080210D02*
X2079829D01*
X2076640Y319285D01*
X2073780Y317634D01*
X2071445Y315299D01*
X2069795Y312440D01*
X2068940Y309251D01*
Y308870D01*
X2080210D01*
Y320140D01*
D02*
G37*
G36*
X1683131D02*
X1682750D01*
Y308870D01*
X1694020D01*
Y309251D01*
X1693165Y312440D01*
X1691514Y315299D01*
X1689180Y317634D01*
X1686320Y319285D01*
X1683131Y320140D01*
D02*
G37*
G36*
X1680210D02*
X1679829D01*
X1676640Y319285D01*
X1673780Y317634D01*
X1671445Y315299D01*
X1669795Y312440D01*
X1668940Y309251D01*
Y308870D01*
X1680210D01*
Y320140D01*
D02*
G37*
G36*
X2094020Y306330D02*
X2082750D01*
Y295060D01*
X2083131D01*
X2086320Y295914D01*
X2089180Y297565D01*
X2091514Y299900D01*
X2093165Y302759D01*
X2094020Y305949D01*
Y306330D01*
D02*
G37*
G36*
X2080210D02*
X2068940D01*
Y305949D01*
X2069795Y302759D01*
X2071445Y299900D01*
X2073780Y297565D01*
X2076640Y295914D01*
X2079829Y295060D01*
X2080210D01*
Y306330D01*
D02*
G37*
G36*
X1694020D02*
X1682750D01*
Y295060D01*
X1683131D01*
X1686320Y295914D01*
X1689180Y297565D01*
X1691514Y299900D01*
X1693165Y302759D01*
X1694020Y305949D01*
Y306330D01*
D02*
G37*
G36*
X1680210D02*
X1668940D01*
Y305949D01*
X1669795Y302759D01*
X1671445Y299900D01*
X1673780Y297565D01*
X1676640Y295914D01*
X1679829Y295060D01*
X1680210D01*
Y306330D01*
D02*
G37*
%LPD*%
D12*
X1638378Y525702D02*
Y525780D01*
D19*
Y525702D02*
X1681480Y482600D01*
Y435610D02*
Y482600D01*
X1624330Y378460D02*
X1681480Y435610D01*
X1584000Y378460D02*
X1624330D01*
X1531220Y563819D02*
X1569259Y525780D01*
X1638378D01*
X1676417Y563819D01*
X1832050Y523030D02*
X1857240Y497840D01*
X1976120D02*
X2002790Y524510D01*
X1857240Y497840D02*
X1976120D01*
X2109409Y563819D02*
X2112010D01*
Y513130D02*
Y563819D01*
X2070100Y524510D02*
X2109409Y563819D01*
X2002790Y524510D02*
X2070100D01*
X2081480Y482600D02*
X2112010Y513130D01*
X1966812Y560488D02*
Y563819D01*
Y560488D02*
X2002790Y524510D01*
D20*
X1681480Y307600D02*
D03*
Y482600D02*
D03*
X2081480Y307600D02*
D03*
Y482600D02*
D03*
D21*
X1584000Y378460D02*
D03*
X1524000D02*
D03*
X1554000Y331460D02*
D03*
D22*
X1787050Y523030D02*
D03*
X1807050D02*
D03*
X1762050D02*
D03*
X1832050D02*
D03*
D23*
X1862750Y550130D02*
D03*
X1731350D02*
D03*
D24*
X1916812Y563819D02*
D03*
X1626418D02*
D03*
X2062010D02*
D03*
X1481220D02*
D03*
D25*
X1966812D02*
D03*
X1676417D02*
D03*
X2112010D02*
D03*
X1531220D02*
D03*
M02*
