G04*
G04 #@! TF.GenerationSoftware,Altium Limited,Altium Designer,23.4.1 (23)*
G04*
G04 Layer_Color=65535*
%FSLAX44Y44*%
%MOMM*%
G71*
G04*
G04 #@! TF.SameCoordinates,7CF3785F-2CE0-4CD5-9ED0-889279B7210F*
G04*
G04*
G04 #@! TF.FilePolarity,Positive*
G04*
G01*
G75*
%ADD10C,0.2000*%
%ADD11C,0.2500*%
%ADD12C,0.2540*%
D10*
X597730Y558948D02*
G03*
X594630Y555950I-100J-2998D01*
G01*
X469630D02*
G03*
X466530Y558948I-3000J0D01*
G01*
X588630Y558950D02*
X588630Y555950D01*
X604630Y555950D02*
Y558950D01*
X597630Y555950D02*
X604630D01*
X597730Y558948D02*
X604630Y558950D01*
X588630Y555950D02*
X594630Y555950D01*
X469630D02*
X475630Y555950D01*
Y558950D01*
X459630Y558950D02*
X466530Y558948D01*
X459630Y555950D02*
X466630D01*
X459630D02*
Y558950D01*
X466630Y418950D02*
X597630D01*
X475630Y558950D02*
X588630D01*
X597630Y418950D02*
Y435950D01*
Y476350D02*
Y555950D01*
X466630Y476350D02*
Y555950D01*
Y418950D02*
Y435950D01*
X817808Y517561D02*
X917809Y517561D01*
X923809Y492811D02*
Y501311D01*
X917809Y493561D02*
X923809Y492811D01*
X917809Y500561D02*
X923809Y501311D01*
X917809Y500561D02*
Y517561D01*
X817808Y442561D02*
X917809D01*
Y493561D01*
X811808Y451561D02*
Y461061D01*
Y451561D02*
X817808Y452061D01*
X811808Y461061D02*
X817808Y460561D01*
Y442561D02*
Y452061D01*
Y460561D02*
Y517561D01*
X649851D02*
X749851Y517561D01*
X755851Y492811D02*
Y501311D01*
X749851Y493561D02*
X755851Y492811D01*
X749851Y500561D02*
X755851Y501311D01*
X749851Y500561D02*
Y517561D01*
X649851Y442561D02*
X749851D01*
Y493561D01*
X643851Y451561D02*
Y461061D01*
Y451561D02*
X649851Y452061D01*
X643851Y461061D02*
X649851Y460561D01*
Y442561D02*
Y452061D01*
Y460561D02*
Y517561D01*
X145978Y460561D02*
Y517561D01*
Y442561D02*
Y452061D01*
X139978Y461061D02*
X145978Y460561D01*
X139978Y451561D02*
X145978Y452061D01*
X139978Y451561D02*
Y461061D01*
X245979Y442561D02*
Y493561D01*
X145978Y442561D02*
X245979D01*
Y500561D02*
Y517561D01*
Y500561D02*
X251979Y501311D01*
X245979Y493561D02*
X251979Y492811D01*
Y501311D01*
X145978Y517561D02*
X245979Y517561D01*
X313936Y517561D02*
X413936Y517561D01*
X419936Y492811D02*
Y501311D01*
X413936Y493561D02*
X419936Y492811D01*
X413936Y500561D02*
X419936Y501311D01*
X413936Y500561D02*
Y517561D01*
X313936Y442561D02*
X413936D01*
Y493561D01*
X307936Y451561D02*
Y461061D01*
Y451561D02*
X313936Y452061D01*
X307936Y461061D02*
X313936Y460561D01*
Y442561D02*
Y452061D01*
Y460561D02*
Y517561D01*
X107630Y150410D02*
X251630D01*
X107630Y60410D02*
Y150410D01*
X251630Y129410D02*
Y150410D01*
X107630Y60410D02*
X193130D01*
X236130D02*
X251630D01*
Y81410D01*
D11*
X258880Y105410D02*
G03*
X258880Y105410I-1250J0D01*
G01*
D12*
X274320Y391750D02*
X934320D01*
X274320Y31750D02*
X934320D01*
Y391750D01*
X274320Y31750D02*
Y391750D01*
X260350Y467357D02*
X270507D01*
X265428Y472436D02*
Y462279D01*
X275585Y459740D02*
X280663D01*
X278124D01*
Y474975D01*
X275585Y472436D01*
X298438Y459740D02*
X288281D01*
X298438Y469897D01*
Y472436D01*
X295898Y474975D01*
X290820D01*
X288281Y472436D01*
X770890Y467357D02*
X781047D01*
X775968Y472436D02*
Y462279D01*
X796282Y474975D02*
X786125D01*
Y467357D01*
X791203Y469897D01*
X793743D01*
X796282Y467357D01*
Y462279D01*
X793743Y459740D01*
X788664D01*
X786125Y462279D01*
X160021Y435607D02*
X154943D01*
X157482D01*
Y422912D01*
X154943Y420373D01*
X152403D01*
X149864Y422912D01*
X175256Y420373D02*
X165099D01*
X175256Y430529D01*
Y433068D01*
X172717Y435607D01*
X167638D01*
X165099Y433068D01*
X599441Y407668D02*
X594362D01*
X596902D01*
Y394972D01*
X594362Y392433D01*
X591823D01*
X589284Y394972D01*
X614676Y407668D02*
X609598Y405128D01*
X604519Y400050D01*
Y394972D01*
X607058Y392433D01*
X612137D01*
X614676Y394972D01*
Y397511D01*
X612137Y400050D01*
X604519D01*
X140970Y175257D02*
X135892D01*
X138431D01*
Y162562D01*
X135892Y160023D01*
X133352D01*
X130813Y162562D01*
X146048Y160023D02*
X151127D01*
X148588D01*
Y175257D01*
X146048Y172718D01*
X660733Y434589D02*
X655655D01*
X658194D01*
Y421893D01*
X655655Y419354D01*
X653116D01*
X650576Y421893D01*
X675968Y434589D02*
X665812D01*
Y426972D01*
X670890Y429511D01*
X673429D01*
X675968Y426972D01*
Y421893D01*
X673429Y419354D01*
X668351D01*
X665812Y421893D01*
X828545Y434771D02*
X823466D01*
X826005D01*
Y422075D01*
X823466Y419536D01*
X820927D01*
X818388Y422075D01*
X841241Y419536D02*
Y434771D01*
X833623Y427154D01*
X843780D01*
X317501Y434338D02*
X312423D01*
X314962D01*
Y421642D01*
X312423Y419103D01*
X309883D01*
X307344Y421642D01*
X322579Y431798D02*
X325118Y434338D01*
X330197D01*
X332736Y431798D01*
Y429259D01*
X330197Y426720D01*
X327658D01*
X330197D01*
X332736Y424181D01*
Y421642D01*
X330197Y419103D01*
X325118D01*
X322579Y421642D01*
M02*
