G04*
G04 #@! TF.GenerationSoftware,Altium Limited,Altium Designer,23.4.1 (23)*
G04*
G04 Layer_Physical_Order=2*
G04 Layer_Color=16711680*
%FSLAX44Y44*%
%MOMM*%
G71*
G04*
G04 #@! TF.SameCoordinates,7CF3785F-2CE0-4CD5-9ED0-889279B7210F*
G04*
G04*
G04 #@! TF.FilePolarity,Positive*
G04*
G01*
G75*
%ADD21C,1.4200*%
%ADD22C,3.4500*%
%ADD23R,1.9500X1.9500*%
%ADD24C,1.9500*%
%ADD25C,4.0000*%
%ADD26C,2.0000*%
%ADD27C,3.0000*%
G36*
X946150Y12700D02*
X123490D01*
Y529590D01*
X946150D01*
Y12700D01*
D02*
G37*
%LPC*%
G36*
X905100Y496850D02*
X880520D01*
Y472270D01*
X905100D01*
Y496850D01*
D02*
G37*
G36*
X844428D02*
X841192D01*
X838066Y496013D01*
X835264Y494395D01*
X832976Y492107D01*
X831358Y489304D01*
X830520Y486178D01*
Y482942D01*
X831358Y479817D01*
X832976Y477014D01*
X835264Y474726D01*
X838066Y473108D01*
X841192Y472270D01*
X844428D01*
X847554Y473108D01*
X850356Y474726D01*
X852645Y477014D01*
X854263Y479817D01*
X855100Y482942D01*
Y486178D01*
X854263Y489304D01*
X852645Y492107D01*
X850356Y494395D01*
X847554Y496013D01*
X844428Y496850D01*
D02*
G37*
G36*
X737142D02*
X712562D01*
Y472270D01*
X737142D01*
Y496850D01*
D02*
G37*
G36*
X676471D02*
X673235D01*
X670109Y496013D01*
X667306Y494395D01*
X665018Y492107D01*
X663400Y489304D01*
X662563Y486178D01*
Y482942D01*
X663400Y479817D01*
X665018Y477014D01*
X667306Y474726D01*
X670109Y473108D01*
X673235Y472270D01*
X676471D01*
X679596Y473108D01*
X682399Y474726D01*
X684687Y477014D01*
X686305Y479817D01*
X687143Y482942D01*
Y486178D01*
X686305Y489304D01*
X684687Y492107D01*
X682399Y494395D01*
X679596Y496013D01*
X676471Y496850D01*
D02*
G37*
G36*
X401227D02*
X376647D01*
Y472270D01*
X401227D01*
Y496850D01*
D02*
G37*
G36*
X340556D02*
X337320D01*
X334194Y496013D01*
X331391Y494395D01*
X329103Y492107D01*
X327485Y489304D01*
X326648Y486178D01*
Y482942D01*
X327485Y479817D01*
X329103Y477014D01*
X331391Y474726D01*
X334194Y473108D01*
X337320Y472270D01*
X340556D01*
X343681Y473108D01*
X346484Y474726D01*
X348772Y477014D01*
X350390Y479817D01*
X351228Y482942D01*
Y486178D01*
X350390Y489304D01*
X348772Y492107D01*
X346484Y494395D01*
X343681Y496013D01*
X340556Y496850D01*
D02*
G37*
G36*
X233270D02*
X208690D01*
Y472270D01*
X233270D01*
Y496850D01*
D02*
G37*
G36*
X172598D02*
X169362D01*
X166236Y496013D01*
X163434Y494395D01*
X161146Y492107D01*
X159528Y489304D01*
X158690Y486178D01*
Y482942D01*
X159528Y479817D01*
X161146Y477014D01*
X163434Y474726D01*
X166236Y473108D01*
X169362Y472270D01*
X172598D01*
X175724Y473108D01*
X178526Y474726D01*
X180814Y477014D01*
X182433Y479817D01*
X183270Y482942D01*
Y486178D01*
X182433Y489304D01*
X180814Y492107D01*
X178526Y494395D01*
X175724Y496013D01*
X172598Y496850D01*
D02*
G37*
G36*
X599779Y475940D02*
X595881D01*
X592057Y475179D01*
X588456Y473688D01*
X585215Y471522D01*
X582458Y468765D01*
X580292Y465524D01*
X578801Y461922D01*
X578040Y458099D01*
Y454201D01*
X578801Y450378D01*
X580292Y446776D01*
X582458Y443535D01*
X585215Y440778D01*
X588456Y438612D01*
X592057Y437121D01*
X595881Y436360D01*
X599779D01*
X603602Y437121D01*
X607204Y438612D01*
X610445Y440778D01*
X613202Y443535D01*
X615368Y446776D01*
X616860Y450378D01*
X617620Y454201D01*
Y458099D01*
X616860Y461922D01*
X615368Y465524D01*
X613202Y468765D01*
X610445Y471522D01*
X607204Y473688D01*
X603602Y475179D01*
X599779Y475940D01*
D02*
G37*
G36*
X468379D02*
X464481D01*
X460658Y475179D01*
X457056Y473688D01*
X453815Y471522D01*
X451058Y468765D01*
X448892Y465524D01*
X447401Y461922D01*
X446640Y458099D01*
Y454201D01*
X447401Y450378D01*
X448892Y446776D01*
X451058Y443535D01*
X453815Y440778D01*
X457056Y438612D01*
X460658Y437121D01*
X464481Y436360D01*
X468379D01*
X472202Y437121D01*
X475804Y438612D01*
X479045Y440778D01*
X481802Y443535D01*
X483968Y446776D01*
X485460Y450378D01*
X486220Y454201D01*
Y458099D01*
X485460Y461922D01*
X483968Y465524D01*
X481802Y468765D01*
X479045Y471522D01*
X475804Y473688D01*
X472202Y475179D01*
X468379Y475940D01*
D02*
G37*
G36*
X543399Y438690D02*
X540861D01*
X538409Y438033D01*
X536211Y436764D01*
X534416Y434969D01*
X533147Y432771D01*
X532787Y431429D01*
X531473D01*
X531113Y432771D01*
X529844Y434969D01*
X528049Y436764D01*
X525851Y438033D01*
X523399Y438690D01*
X520861D01*
X518409Y438033D01*
X516211Y436764D01*
X514416Y434969D01*
X513147Y432771D01*
X512490Y430319D01*
Y427781D01*
X513147Y425329D01*
X514416Y423131D01*
X516211Y421336D01*
X518409Y420067D01*
X520861Y419410D01*
X523399D01*
X525851Y420067D01*
X528049Y421336D01*
X529844Y423131D01*
X531113Y425329D01*
X531473Y426671D01*
X532787D01*
X533147Y425329D01*
X534416Y423131D01*
X536211Y421336D01*
X538409Y420067D01*
X540861Y419410D01*
X543399D01*
X545851Y420067D01*
X548049Y421336D01*
X549844Y423131D01*
X551113Y425329D01*
X551770Y427781D01*
Y430319D01*
X551113Y432771D01*
X549844Y434969D01*
X548049Y436764D01*
X545851Y438033D01*
X543399Y438690D01*
D02*
G37*
G36*
X568399D02*
X565861D01*
X563409Y438033D01*
X561211Y436764D01*
X559416Y434969D01*
X558147Y432771D01*
X557490Y430319D01*
Y427781D01*
X558147Y425329D01*
X559416Y423131D01*
X561211Y421336D01*
X563409Y420067D01*
X565861Y419410D01*
X568399D01*
X570851Y420067D01*
X573049Y421336D01*
X574844Y423131D01*
X576113Y425329D01*
X576770Y427781D01*
Y430319D01*
X576113Y432771D01*
X574844Y434969D01*
X573049Y436764D01*
X570851Y438033D01*
X568399Y438690D01*
D02*
G37*
G36*
X498399D02*
X495861D01*
X493409Y438033D01*
X491211Y436764D01*
X489416Y434969D01*
X488147Y432771D01*
X487490Y430319D01*
Y427781D01*
X488147Y425329D01*
X489416Y423131D01*
X491211Y421336D01*
X493409Y420067D01*
X495861Y419410D01*
X498399D01*
X500851Y420067D01*
X503049Y421336D01*
X504844Y423131D01*
X506113Y425329D01*
X506770Y427781D01*
Y430319D01*
X506113Y432771D01*
X504844Y434969D01*
X503049Y436764D01*
X500851Y438033D01*
X498399Y438690D01*
D02*
G37*
G36*
X909778Y382030D02*
X906323D01*
X902934Y381356D01*
X899742Y380034D01*
X896869Y378114D01*
X894426Y375671D01*
X892507Y372798D01*
X891185Y369606D01*
X890510Y366217D01*
Y362762D01*
X891185Y359374D01*
X892507Y356182D01*
X894426Y353309D01*
X896869Y350866D01*
X899742Y348946D01*
X902934Y347624D01*
X906323Y346950D01*
X909778D01*
X913167Y347624D01*
X916359Y348946D01*
X919232Y350866D01*
X921675Y353309D01*
X923594Y356182D01*
X924916Y359374D01*
X925591Y362762D01*
Y366217D01*
X924916Y369606D01*
X923594Y372798D01*
X921675Y375671D01*
X919232Y378114D01*
X916359Y380034D01*
X913167Y381356D01*
X909778Y382030D01*
D02*
G37*
G36*
X300178D02*
X296723D01*
X293334Y381356D01*
X290142Y380034D01*
X287269Y378114D01*
X284826Y375671D01*
X282907Y372798D01*
X281585Y369606D01*
X280910Y366217D01*
Y362762D01*
X281585Y359374D01*
X282907Y356182D01*
X284826Y353309D01*
X287269Y350866D01*
X290142Y348946D01*
X293334Y347624D01*
X296723Y346950D01*
X300178D01*
X303567Y347624D01*
X306759Y348946D01*
X309632Y350866D01*
X312075Y353309D01*
X313994Y356182D01*
X315316Y359374D01*
X315991Y362762D01*
Y366217D01*
X315316Y369606D01*
X313994Y372798D01*
X312075Y375671D01*
X309632Y378114D01*
X306759Y380034D01*
X303567Y381356D01*
X300178Y382030D01*
D02*
G37*
G36*
X921131Y294480D02*
X917829D01*
X914640Y293625D01*
X911780Y291975D01*
X909445Y289640D01*
X907795Y286780D01*
X906940Y283591D01*
Y280289D01*
X907795Y277100D01*
X909445Y274240D01*
X911780Y271905D01*
X914640Y270255D01*
X917829Y269400D01*
X921131D01*
X924320Y270255D01*
X927180Y271905D01*
X929514Y274240D01*
X931165Y277100D01*
X932020Y280289D01*
Y283591D01*
X931165Y286780D01*
X929514Y289640D01*
X927180Y291975D01*
X924320Y293625D01*
X921131Y294480D01*
D02*
G37*
G36*
X289941D02*
X286639D01*
X283450Y293625D01*
X280590Y291975D01*
X278256Y289640D01*
X276605Y286780D01*
X275750Y283591D01*
Y280289D01*
X276605Y277100D01*
X278256Y274240D01*
X280590Y271905D01*
X283450Y270255D01*
X286639Y269400D01*
X289941D01*
X293130Y270255D01*
X295990Y271905D01*
X298325Y274240D01*
X299975Y277100D01*
X300830Y280289D01*
Y283591D01*
X299975Y286780D01*
X298325Y289640D01*
X295990Y291975D01*
X293130Y293625D01*
X289941Y294480D01*
D02*
G37*
G36*
X921131Y149700D02*
X917829D01*
X914640Y148845D01*
X911780Y147194D01*
X909445Y144860D01*
X907795Y142000D01*
X906940Y138811D01*
Y135509D01*
X907795Y132320D01*
X909445Y129460D01*
X911780Y127126D01*
X914640Y125475D01*
X917829Y124620D01*
X921131D01*
X924320Y125475D01*
X927180Y127126D01*
X929514Y129460D01*
X931165Y132320D01*
X932020Y135509D01*
Y138811D01*
X931165Y142000D01*
X929514Y144860D01*
X927180Y147194D01*
X924320Y148845D01*
X921131Y149700D01*
D02*
G37*
G36*
X289941D02*
X286639D01*
X283450Y148845D01*
X280590Y147194D01*
X278256Y144860D01*
X276605Y142000D01*
X275750Y138811D01*
Y135509D01*
X276605Y132320D01*
X278256Y129460D01*
X280590Y127126D01*
X283450Y125475D01*
X286639Y124620D01*
X289941D01*
X293130Y125475D01*
X295990Y127126D01*
X298325Y129460D01*
X299975Y132320D01*
X300830Y135509D01*
Y138811D01*
X299975Y142000D01*
X298325Y144860D01*
X295990Y147194D01*
X293130Y148845D01*
X289941Y149700D01*
D02*
G37*
G36*
X246850Y127950D02*
X242410D01*
X238055Y127084D01*
X233953Y125385D01*
X230262Y122918D01*
X227122Y119778D01*
X224655Y116087D01*
X222956Y111985D01*
X222090Y107630D01*
Y103190D01*
X222956Y98835D01*
X224655Y94733D01*
X227122Y91042D01*
X230262Y87902D01*
X233953Y85435D01*
X238055Y83736D01*
X242410Y82870D01*
X246850D01*
X251205Y83736D01*
X255307Y85435D01*
X258998Y87902D01*
X262138Y91042D01*
X264605Y94733D01*
X266304Y98835D01*
X267170Y103190D01*
Y107630D01*
X266304Y111985D01*
X264605Y116087D01*
X262138Y119778D01*
X258998Y122918D01*
X255307Y125385D01*
X251205Y127084D01*
X246850Y127950D01*
D02*
G37*
G36*
X186850D02*
X182410D01*
X178055Y127084D01*
X173953Y125385D01*
X170262Y122918D01*
X167122Y119778D01*
X164655Y116087D01*
X162956Y111985D01*
X162090Y107630D01*
Y103190D01*
X162956Y98835D01*
X164655Y94733D01*
X167122Y91042D01*
X170262Y87902D01*
X173953Y85435D01*
X178055Y83736D01*
X182410Y82870D01*
X186850D01*
X191205Y83736D01*
X195307Y85435D01*
X198998Y87902D01*
X202138Y91042D01*
X204605Y94733D01*
X206304Y98835D01*
X207170Y103190D01*
Y107630D01*
X206304Y111985D01*
X204605Y116087D01*
X202138Y119778D01*
X198998Y122918D01*
X195307Y125385D01*
X191205Y127084D01*
X186850Y127950D01*
D02*
G37*
G36*
X909778Y72150D02*
X906323D01*
X902934Y71476D01*
X899742Y70154D01*
X896869Y68234D01*
X894426Y65791D01*
X892507Y62918D01*
X891185Y59726D01*
X890510Y56337D01*
Y52882D01*
X891185Y49494D01*
X892507Y46302D01*
X894426Y43429D01*
X896869Y40986D01*
X899742Y39066D01*
X902934Y37744D01*
X906323Y37070D01*
X909778D01*
X913167Y37744D01*
X916359Y39066D01*
X919232Y40986D01*
X921675Y43429D01*
X923594Y46302D01*
X924916Y49494D01*
X925591Y52882D01*
Y56337D01*
X924916Y59726D01*
X923594Y62918D01*
X921675Y65791D01*
X919232Y68234D01*
X916359Y70154D01*
X913167Y71476D01*
X909778Y72150D01*
D02*
G37*
G36*
X300178D02*
X296723D01*
X293334Y71476D01*
X290142Y70154D01*
X287269Y68234D01*
X284826Y65791D01*
X282907Y62918D01*
X281585Y59726D01*
X280910Y56337D01*
Y52882D01*
X281585Y49494D01*
X282907Y46302D01*
X284826Y43429D01*
X287269Y40986D01*
X290142Y39066D01*
X293334Y37744D01*
X296723Y37070D01*
X300178D01*
X303567Y37744D01*
X306759Y39066D01*
X309632Y40986D01*
X312075Y43429D01*
X313994Y46302D01*
X315316Y49494D01*
X315991Y52882D01*
Y56337D01*
X315316Y59726D01*
X313994Y62918D01*
X312075Y65791D01*
X309632Y68234D01*
X306759Y70154D01*
X303567Y71476D01*
X300178Y72150D01*
D02*
G37*
G36*
X216850Y80950D02*
X212410D01*
X208055Y80084D01*
X203953Y78385D01*
X200262Y75918D01*
X197122Y72778D01*
X194655Y69087D01*
X192956Y64985D01*
X192090Y60630D01*
Y56190D01*
X192956Y51835D01*
X194655Y47733D01*
X197122Y44042D01*
X200262Y40902D01*
X203953Y38435D01*
X208055Y36736D01*
X212410Y35870D01*
X216850D01*
X221205Y36736D01*
X225307Y38435D01*
X228998Y40902D01*
X232138Y44042D01*
X234605Y47733D01*
X236304Y51835D01*
X237170Y56190D01*
Y60630D01*
X236304Y64985D01*
X234605Y69087D01*
X232138Y72778D01*
X228998Y75918D01*
X225307Y78385D01*
X221205Y80084D01*
X216850Y80950D01*
D02*
G37*
%LPD*%
D21*
X522130Y429050D02*
D03*
X542130D02*
D03*
X497130D02*
D03*
X567130D02*
D03*
D22*
X597830Y456150D02*
D03*
X466430D02*
D03*
D23*
X892810Y484560D02*
D03*
X724853D02*
D03*
X220980D02*
D03*
X388937D02*
D03*
D24*
X842810D02*
D03*
X674853D02*
D03*
X170980D02*
D03*
X338938D02*
D03*
D25*
X214630Y58410D02*
D03*
X244630Y105410D02*
D03*
X184630D02*
D03*
D26*
X919480Y137160D02*
D03*
X288290Y281940D02*
D03*
X919480D02*
D03*
X288290Y137160D02*
D03*
D27*
X298451Y54610D02*
D03*
X908051D02*
D03*
Y364490D02*
D03*
X298451D02*
D03*
M02*
