M48
;Layer_Color=9474304
;FILE_FORMAT=4:4
METRIC,LZ
;TYPE=PLATED
T1F00S00C0.9200
T2F00S00C1.3000
T3F00S00C2.3000
T4F00S00C2.5000
;TYPE=NON_PLATED
T5F00S00C0.9000
T6F00S00C3.0000
%
T01
X0049713Y0042905
X0052213
X0054213
X0056713
T02
X0084281Y0048456
X0089281
X00724853
X00674853
X00388937
X00338938
X0022098
X0017098
T03
X0046643Y0045615
X0059783
T04
X0021463Y0005841
X0024463Y0010541
X0018463
T05
X0028829Y0013716
Y0028194
X0091948
Y0013716
T06
X00298451Y0005461
Y0036449
X00908051
Y0005461
M30
